# xmcd CD database file
#
# Track frame offsets:
#	182
#	37200
#	56685
#	79490
#	100702
#	139655
#	169710
#	189205
#	211372
#
# Disc length: 3082 seconds
#
# Revision: 0
# Processed by: cddbd v1.5.1PL0 Copyright (c) Steve Scherf et al.
# Submitted via: CDex 1.51
#
DISCID=7a0c0809
DTITLE=Kryzsztof Barcik - Lovin'You, Missin'You
DYEAR=1994
DGENRE=Jazz
TTITLE0=The Ice Queen
TTITLE1=This Is Your Live
TTITLE2=Lovin'You, Missin'You
TTITLE3=Far Away From You
TTITLE4=The Long Goodbye
TTITLE5=New Woman
TTITLE6=Face Of Faith
TTITLE7=Price Of Fame
TTITLE8=Where Is She Now
EXTD=YEAR: 1994
EXTT0=
EXTT1=
EXTT2=
EXTT3=
EXTT4=
EXTT5=
EXTT6=
EXTT7=
EXTT8=
PLAYORDER=
